# xmcd
#
# Track frame offsets: 
#        150
#        33355
#        44392
#        62823
#        81532
#        103804
#        123174
#        133741
#        153384
#        172843
#        191576
#        207540
#        225206
#        242711
#        260934
#        280508
#        302185
#        322538
#
# Disc length: 4573 seconds
#
# Revision: 1
# Processed by: cddbd v1.5.1PL2 Copyright (c) Steve Scherf et al.
# Submitted via: ExactAudioCopy v0.95b3
#
DISCID=f711db12
DTITLE=Various Artist - Spring Equinox (Mixed By Vanigma) 2cd's
DYEAR=2005
DGENRE=Ambient
TTITLE0=Andreas Vollenweider - Behind The Gardens, Behind The Wall, Un
TTITLE0=der The Tree...
TTITLE1=Ennio Morricone - Theme From "The Mission"
TTITLE2=Roger Eno - Through The Blue
TTITLE3=Jean Michel Jarre - Oxygene IV
TTITLE4=Kitaro - Theme From Silk Road (2000 Version)
TTITLE5=Handel - Aria and Larghetto (Café Del Mar)
TTITLE6=Mannheim Steamroller - Sonata
TTITLE7=Mike Oldfield - The Top Of The Morning
TTITLE8=Cusco - Waters Of Cesme
TTITLE9=Grieg - Morning Mood
TTITLE10=Vivaldi - La Primavera "I-Allegro"
TTITLE11=Enya - Flora's Secret
TTITLE12=B-Tribe - Angelic Voices (Rebirth Remix)
TTITLE13=Phil Coulter - Sunlight On The Water
TTITLE14=Yanni - True Nature
TTITLE15=Ottmar Liebert - Merengue De Alegrías
TTITLE16=Assorted Artists - Chinese Canon
TTITLE17=Aria 2 (Paul Schwartz) - Ebben (After Catalani's La Wally)
EXTD=YEAR: 2005
EXTT0=
EXTT1=
EXTT2=
EXTT3=
EXTT4=
EXTT5=
EXTT6=
EXTT7=
EXTT8=
EXTT9=
EXTT10=
EXTT11=
EXTT12=
EXTT13=
EXTT14=
EXTT15=
EXTT16=
EXTT17=
PLAYORDER=
